<?xml version="1.0" standalone="no"?>
<!DOCTYPE svg PUBLIC "-//W3C//DTD SVG 20010904//EN"
 "http://www.w3.org/TR/2001/REC-SVG-20010904/DTD/svg10.dtd">
<svg version="1.0" xmlns="http://www.w3.org/2000/svg"
 width="16.000000pt" height="16.000000pt" viewBox="0 0 16.000000 16.000000"
 preserveAspectRatio="xMidYMid meet">
<metadata>
Created by potrace 1.11, written by Peter Selinger 2001-2013
</metadata>
<g transform="translate(0.000000,16.000000) scale(0.003931,-0.003931)"
fill="#000000" stroke="none">
<path d="M1770 3958 c-103 -27 -202 -75 -290 -141 -45 -35 -85 -57 -100 -57
-33 1 -94 31 -150 75 -108 85 -200 103 -317 62 -90 -31 -222 -118 -293 -192
-86 -89 -95 -100 -98 -115 -2 -8 -12 -32 -22 -55 -81 -178 -48 -389 75 -491
45 -36 139 -84 168 -84 10 0 33 -6 51 -14 38 -16 55 -55 81 -186 15 -77 15
-396 0 -487 l-8 -42 48 -12 c27 -7 49 -19 52 -28 2 -9 9 -23 14 -31 5 -8 15
-26 21 -40 7 -14 28 -44 46 -67 19 -24 32 -43 29 -43 -3 0 -40 18 -82 40 -42
22 -86 40 -99 40 -40 0 -89 -76 -69 -106 5 -6 29 -22 56 -35 l47 -24 -33 -18
c-37 -20 -72 -70 -63 -92 18 -47 77 -31 165 45 64 55 108 80 139 80 38 0 20
-21 -33 -39 -40 -13 -53 -23 -67 -51 -25 -53 -132 -142 -166 -139 -67 6 -132
-34 -132 -82 0 -12 -7 -19 -19 -19 -11 0 -33 -11 -48 -24 -25 -22 -28 -30 -28
-88 1 -44 7 -75 22 -103 l21 -39 -23 -56 c-12 -30 -29 -75 -37 -100 l-15 -45
-54 -1 c-78 -2 -76 -2 -99 -26 -21 -23 -26 -63 -11 -86 5 -8 32 -22 62 -31 67
-22 80 -40 56 -80 -41 -69 -1 -142 75 -137 26 2 48 -5 78 -25 36 -24 49 -27
91 -23 l49 5 -1 -97 c-1 -90 1 -100 22 -116 21 -18 22 -20 9 -109 -7 -49 -17
-92 -22 -95 -11 -7 30 -54 46 -54 7 0 19 -15 29 -33 21 -39 101 -95 151 -107
94 -21 363 -8 441 22 78 29 115 50 134 74 l21 27 -20 34 c-46 78 -12 125 98
136 78 8 84 3 77 -65 l-6 -59 33 -13 c18 -8 53 -17 78 -20 25 -3 59 -8 75 -11
56 -10 260 -12 326 -4 78 9 173 41 202 66 10 10 23 29 28 42 8 19 5 27 -18 47
-15 13 -41 26 -57 30 -28 6 -29 7 -11 20 18 13 17 16 -8 68 -15 30 -32 58 -38
61 -19 12 -32 59 -35 125 -1 36 -5 79 -9 95 -3 17 -8 53 -11 80 -5 53 -11 97
-14 105 -1 3 -2 8 -1 13 1 4 -3 27 -9 52 -6 25 -13 62 -16 83 -3 20 -7 45 -10
54 -3 9 -6 25 -8 35 -2 10 -5 23 -6 28 -5 24 2 33 33 39 36 7 77 40 104 86 11
20 30 34 54 40 21 6 63 30 96 54 62 46 173 151 173 164 0 4 16 25 35 47 20 22
45 58 56 79 12 22 53 71 91 110 83 84 100 114 102 178 0 26 6 48 11 48 44 0
268 35 348 55 176 43 232 89 155 128 -55 27 -127 36 -294 36 -87 0 -171 1
-187 1 -23 0 -26 3 -18 18 12 21 71 228 76 263 3 24 0 26 -26 24 -16 -1 -49 2
-73 8 -38 9 -48 7 -74 -12 -36 -25 -99 -27 -157 -4 -51 19 -195 24 -195 5 0
-6 20 -79 45 -161 25 -82 45 -151 45 -154 0 -18 -55 -30 -171 -38 -273 -19
-377 -81 -233 -137 52 -21 61 -29 72 -60 7 -21 14 -44 15 -52 1 -8 6 -18 10
-21 8 -6 25 -63 30 -98 1 -8 -9 -21 -23 -28 -22 -12 -27 -11 -46 11 -45 51
-87 58 -142 24 -45 -27 -93 -25 -148 7 -78 46 -84 71 -31 129 26 28 110 192
114 221 1 11 5 36 8 55 3 19 7 65 9 102 5 83 12 105 41 136 12 13 21 33 20 45
-1 12 -3 27 -4 33 0 6 -10 22 -21 35 -11 13 -23 29 -27 34 -19 25 -68 180 -78
247 -10 67 -18 180 -16 220 1 9 9 19 19 22 30 10 132 115 132 136 0 6 4 10 9
10 15 0 63 123 67 170 2 25 4 47 5 50 1 3 0 10 -1 15 -1 6 -4 30 -6 54 -2 23
-9 51 -14 61 -5 9 -7 20 -4 23 11 11 -87 127 -139 166 -81 60 -127 73 -293 85
-22 2 -74 -6 -114 -16z"/>
<path d="M2872 3113 c-12 -2 -33 -19 -47 -38 -14 -18 -40 -39 -58 -46 -39 -15
-147 -87 -147 -97 0 -4 -17 -18 -37 -32 -60 -41 -73 -60 -73 -107 0 -56 38
-101 93 -108 21 -2 43 -8 50 -12 20 -13 56 -14 91 -4 27 7 40 5 63 -9 16 -10
50 -22 76 -28 42 -8 50 -7 95 19 48 27 51 27 96 14 25 -8 47 -15 49 -15 1 -1
16 4 32 10 17 6 45 13 63 16 76 10 109 61 93 146 -2 10 -138 141 -158 152 -10
5 -24 16 -31 23 -7 7 -35 20 -63 30 -27 10 -51 25 -54 34 -13 41 -72 64 -133
52z"/>
</g>
</svg>
